<?xml version="1.0" standalone="no"?>
<!DOCTYPE svg PUBLIC "-//W3C//DTD SVG 20010904//EN"
 "http://www.w3.org/TR/2001/REC-SVG-20010904/DTD/svg10.dtd">
<svg version="1.0" xmlns="http://www.w3.org/2000/svg"
 width="920.000000pt" height="617.000000pt" viewBox="0 0 920.000000 617.000000"
 preserveAspectRatio="xMidYMid meet">

<g transform="translate(0.000000,617.000000) scale(0.100000,-0.100000)"
fill="#000000" stroke="none">
<path d="M4340 5463 l-235 -166 -424 -771 -423 -770 51 -160 c28 -88 50 -160
48 -162 -1 -1 -134 -77 -296 -168 -162 -91 -296 -168 -298 -170 -2 -2 10 -28
28 -57 18 -29 29 -54 23 -56 -76 -28 -858 -392 -855 -399 2 -5 203 -203 447
-441 l445 -432 107 46 c59 25 112 46 119 47 6 0 345 -280 753 -624 408 -344
747 -629 754 -634 9 -7 221 165 747 604 404 337 742 620 751 628 18 15 24 14
235 -65 15 -6 936 868 926 878 -5 5 -204 94 -443 200 -239 105 -436 193 -438
194 -2 2 11 26 29 54 17 29 30 54 28 55 -2 2 -141 79 -309 171 -168 92 -308
170 -312 173 -3 4 23 72 59 152 53 119 63 149 56 170 -5 14 -136 263 -291 554
-155 291 -280 531 -278 533 2 2 77 17 167 34 90 16 170 32 178 35 12 4 -1093
715 -1109 713 -3 0 -111 -75 -240 -166z m643 -230 l340 -218 -130 -5 -130 -5
349 -615 c192 -338 356 -629 365 -646 l15 -31 -317 -429 c-175 -236 -324 -436
-332 -444 -18 -19 -31 -52 167 430 89 217 164 400 167 406 2 6 32 19 66 29 34
10 66 22 70 25 10 9 -439 356 -455 352 -6 -2 -125 -55 -266 -119 l-255 -116
-76 32 c-42 18 -171 71 -287 118 l-212 86 -111 -78 c-107 -75 -323 -250 -332
-269 -2 -5 21 -18 51 -28 l56 -18 163 -398 c91 -218 171 -413 179 -432 8 -19
11 -32 8 -29 -3 3 -154 203 -335 444 l-329 439 34 60 c18 34 208 380 421 769
l388 708 180 99 c99 54 186 99 194 99 8 1 167 -97 354 -216z m-738 -1596 c88
-36 99 -52 70 -106 -19 -37 -62 -61 -111 -61 -28 0 -44 8 -70 34 -28 28 -34
41 -34 78 0 48 22 88 48 88 9 0 53 -15 97 -33z m858 16 c41 -46 27 -131 -27
-164 -77 -47 -172 -2 -179 84 -2 27 3 31 78 62 92 40 106 41 128 18z m761
-557 c44 -29 107 -69 138 -89 l58 -37 -93 -95 -92 -96 -78 -6 c-94 -7 -61 34
-283 -353 -86 -151 -164 -286 -173 -299 -33 -52 18 -4 215 202 l199 208 125
-6 125 -5 135 135 c74 74 139 135 145 135 5 0 119 -55 252 -122 l242 -121 -26
-31 c-22 -27 -130 -144 -323 -349 l-55 -58 -126 59 -127 60 -751 -634 c-414
-349 -756 -634 -762 -634 -5 0 -350 285 -767 633 -417 347 -765 638 -774 645
-14 11 -35 3 -142 -50 l-127 -63 -166 170 c-91 94 -181 187 -200 207 l-34 37
178 89 c98 49 206 106 241 125 l63 36 135 -134 136 -135 121 0 122 0 213 -207
c117 -113 214 -204 216 -202 2 2 -72 146 -164 319 l-167 315 -87 14 -88 14
-79 94 c-43 52 -79 98 -79 103 0 9 270 160 286 160 5 0 184 -178 398 -396
l389 -395 -58 -59 -59 -60 175 -167 c261 -253 297 -285 306 -281 4 1 118 114
253 251 l244 247 -58 52 -58 51 355 356 c195 196 367 375 381 399 31 49 20 51
150 -32z"/>
<path d="M4902 1594 l-282 -255 -268 209 c-147 114 -285 221 -307 237 -22 16
91 -104 250 -267 l290 -295 193 196 c194 197 417 431 411 431 -2 0 -131 -115
-287 -256z"/>
</g>
</svg>
